HIERARCHY
ROOT Hips
{
	OFFSET -0.001795 -0.223333 0.028219
	CHANNELS 6 Xposition Yposition Zposition Zrotation Yrotation Xrotation 
	JOINT LeftUpLeg
	{
		OFFSET 0.069520 -0.091406 -0.006815
		CHANNELS 3 Zrotation Yrotation Xrotation
		JOINT LeftLeg
		{
			OFFSET 0.034277 -0.375199 -0.004496
			CHANNELS 3 Zrotation Yrotation Xrotation
			JOINT LeftFoot
			{
				OFFSET -0.013596 -0.397961 -0.043693
				CHANNELS 3 Zrotation Yrotation Xrotation
				JOINT LeftToe
				{
					OFFSET 0.026358 -0.055791 0.119288
					CHANNELS 3 Zrotation Yrotation Xrotation
					End Site
					{
						OFFSET 0.000000 0.000000 0.000000
					}
				}
			}
		}
	}
	JOINT RightUpLeg
	{
		OFFSET -0.067670 -0.090522 -0.004320
		CHANNELS 3 Zrotation Yrotation Xrotation
		JOINT RightLeg
		{
			OFFSET -0.038290 -0.382569 -0.008850
			CHANNELS 3 Zrotation Yrotation Xrotation
			JOINT RightFoot
			{
				OFFSET 0.015774 -0.398415 -0.042312
				CHANNELS 3 Zrotation Yrotation Xrotation
				JOINT RightToe
				{
					OFFSET -0.025372 -0.048144 0.123348
					CHANNELS 3 Zrotation Yrotation Xrotation
					End Site
					{
						OFFSET 0.000000 0.000000 0.000000
					}
				}
			}
		}
	}
	JOINT Spine
	{
		OFFSET -0.002533 0.108963 -0.026696
		CHANNELS 3 Zrotation Yrotation Xrotation
		JOINT Spine1
		{
			OFFSET 0.005487 0.135180 0.001092
			CHANNELS 3 Zrotation Yrotation Xrotation
			JOINT Spine2
			{
				OFFSET 0.001457 0.052922 0.025425
				CHANNELS 3 Zrotation Yrotation Xrotation
				JOINT Neck
				{
					OFFSET -0.002778 0.213870 -0.042857
					CHANNELS 3 Zrotation Yrotation Xrotation
					JOINT Head
					{
						OFFSET 0.005152 0.064970 0.051349
						CHANNELS 3 Zrotation Yrotation Xrotation
						End Site
						{
							OFFSET 0.000000 0.000000 0.000000
						}
					}
				}
				JOINT LeftShoulder
				{
					OFFSET 0.078845 0.121749 -0.034090
					CHANNELS 3 Zrotation Yrotation Xrotation
					JOINT LeftArm
					{
						OFFSET 0.090977 0.030469 -0.008868
						CHANNELS 3 Zrotation Yrotation Xrotation
						JOINT LeftForeArm
						{
							OFFSET 0.259612 -0.012772 -0.027456
							CHANNELS 3 Zrotation Yrotation Xrotation
							JOINT LeftHand
							{
								OFFSET 0.249234 0.008986 -0.001171
								CHANNELS 3 Zrotation Yrotation Xrotation
								End Site
								{
									OFFSET 0.000000 0.000000 0.000000
								}
							}
						}
					}
				}
				JOINT RightShoulder
				{
					OFFSET -0.081759 0.118833 -0.038615
					CHANNELS 3 Zrotation Yrotation Xrotation
					JOINT RightArm
					{
						OFFSET -0.096012 0.032551 -0.009143
						CHANNELS 3 Zrotation Yrotation Xrotation
						JOINT RightForeArm
						{
							OFFSET -0.253742 -0.013329 -0.021401
							CHANNELS 3 Zrotation Yrotation Xrotation
							JOINT RightHand
							{
								OFFSET -0.255298 0.007772 -0.005559
								CHANNELS 3 Zrotation Yrotation Xrotation
								End Site
								{
									OFFSET 0.000000 0.000000 0.000000
								}
							}
						}
					}
				}
			}
		}
	}
}
MOTION
Frames: 9
Frame Time: 0.050000
0.000000 0.935009 0.000000 -1.993848 2.687081 0.699631 4.939869 0.231980 7.707950 -3.464050 0.373023 -7.519431 5.856025 13.539749 7.819732 0.000000 0.000000 0.000000 -2.508676 -0.055245 1.274961 -1.873958 -0.079382 -5.076758 -1.754328 -7.537453 10.240416 0.000000 0.000000 0.000000 -1.014867 -0.102225 3.440277 6.553239 -1.141707 -21.475030 -1.383515 -1.722365 26.427835 1.243490 0.552168 -22.089053 0.000000 0.000000 0.000000 -29.667246 -0.248056 -1.835464 -51.572407 -5.479502 -6.157744 -3.989920 -23.636015 2.067165 0.000000 0.000000 0.000000 22.298931 5.672661 2.104004 53.808141 8.356758 -4.046714 -1.224689 23.537756 0.838131 0.000000 0.000000 0.000000 
-0.000460 0.935305 0.000047 -2.231255 1.538122 0.905943 5.259419 0.227889 7.693094 -3.817606 0.399547 -7.591754 6.359738 14.398356 8.167369 0.000000 0.000000 0.000000 -2.666742 0.037686 0.267125 -1.170811 -0.073334 -4.012512 -1.300254 -6.688705 9.939738 0.000000 0.000000 0.000000 -0.623838 -0.097655 2.890138 6.150504 -1.091076 -21.059848 -1.211170 -1.236575 26.530496 2.210921 -0.128051 -21.683844 0.000000 0.000000 0.000000 -29.757323 0.789789 -2.429815 -51.473660 -5.071908 -6.353844 -4.288303 -24.275648 2.218135 0.000000 0.000000 0.000000 21.077148 5.931268 2.170854 55.721060 7.669550 -4.414180 -1.435893 25.087810 0.869876 0.000000 0.000000 0.000000 
-0.000630 0.935461 -0.000138 -1.940407 1.930260 0.965486 5.242240 0.203415 7.275506 -4.233247 0.412892 -7.082915 6.164135 14.072443 8.087257 0.000000 0.000000 0.000000 -2.857204 0.017959 0.554998 -1.346866 -0.087264 -4.541157 -1.448890 -6.984017 10.105327 0.000000 0.000000 0.000000 -0.467685 -0.117396 3.275611 6.063183 -1.010705 -21.631665 -1.568233 -1.887912 27.018452 1.241891 0.413688 -21.658128 0.000000 0.000000 0.000000 -30.063670 0.900654 -2.351725 -51.534140 -5.953836 -6.092367 -2.874779 -23.263338 1.855066 0.000000 0.000000 0.000000 21.764030 6.127081 2.166353 54.814705 8.191013 -4.156724 -1.340609 24.756477 0.850980 0.000000 0.000000 0.000000 
-0.000766 0.935655 -0.000165 -2.195173 1.773235 0.660419 5.176297 0.229022 7.617153 -3.630645 0.389880 -7.071004 6.272988 14.248822 8.071780 0.000000 0.000000 0.000000 -2.974278 0.043150 0.248792 -0.625141 -0.087157 -3.447309 -1.411381 -6.858862 9.851913 0.000000 0.000000 0.000000 -0.442821 -0.119004 3.275251 6.564272 -1.181442 -21.268009 -1.645853 -1.911413 27.016464 1.205780 0.327909 -20.364546 0.000000 0.000000 0.000000 -30.364521 1.397234 -2.675355 -51.797790 -5.596731 -6.266511 -2.517269 -23.883034 1.855305 0.000000 0.000000 0.000000 21.084936 6.518822 2.359511 54.812398 7.921873 -4.262542 -1.117504 25.525203 0.918740 0.000000 0.000000 0.000000 
-0.000984 0.936121 -0.000186 -2.173778 2.447017 0.507150 5.029103 0.234540 7.796238 -3.203794 0.365556 -7.290459 5.938995 13.723540 8.137898 0.000000 0.000000 0.000000 -2.910329 -0.004739 0.781108 -0.686491 -0.103325 -3.917622 -1.643610 -7.329035 10.169543 0.000000 0.000000 0.000000 -0.312388 -0.141648 3.715160 6.630673 -1.222275 -20.862767 -1.998203 -2.261555 26.407456 0.890851 0.536601 -20.071298 0.000000 0.000000 0.000000 -30.257894 1.389568 -2.738851 -51.963139 -5.548336 -6.209893 -2.446614 -23.683550 1.807798 0.000000 0.000000 0.000000 21.347948 6.362952 2.271119 54.583666 7.848129 -4.207496 -0.916352 25.498386 0.952897 0.000000 0.000000 0.000000 
-0.001093 0.936313 -0.000049 -2.194538 2.933511 0.459863 4.979740 0.231039 7.887264 -2.935938 0.351099 -7.488577 5.707039 13.355527 8.147984 0.000000 0.000000 0.000000 -2.905037 -0.023783 0.978206 -0.588492 -0.115403 -4.028327 -1.835232 -7.685121 10.301758 0.000000 0.000000 0.000000 -0.479903 -0.141119 3.879958 6.860189 -1.230505 -21.397018 -2.038633 -2.633050 27.024675 0.509382 0.762824 -20.038952 0.000000 0.000000 0.000000 -30.444861 1.538037 -2.811454 -51.954904 -5.768867 -6.187510 -2.231296 -23.733483 1.781192 0.000000 0.000000 0.000000 21.173336 6.514673 2.365793 54.245626 7.632630 -4.350539 -0.698835 25.670880 1.003316 0.000000 0.000000 0.000000 
-0.001220 0.936659 0.000147 -2.175767 3.473293 0.322496 4.994377 0.221552 7.988217 -2.839851 0.342235 -7.534098 5.435605 12.925153 8.160956 0.000000 0.000000 0.000000 -2.897799 -0.040753 1.133160 -0.562108 -0.108947 -3.858183 -2.067140 -8.098528 10.377235 0.000000 0.000000 0.000000 -0.556467 -0.148532 4.152501 6.936310 -1.259078 -21.170317 -2.205678 -2.964479 26.880260 0.471041 0.794709 -20.164463 0.000000 0.000000 0.000000 -30.572496 1.621342 -2.895670 -51.802575 -5.537147 -6.259391 -2.007980 -23.568444 1.718791 0.000000 0.000000 0.000000 21.230331 6.544010 2.386502 54.162128 7.489410 -4.401003 -0.678876 25.854782 1.016114 0.000000 0.000000 0.000000 
-0.001310 0.936577 0.000384 -2.171687 3.704163 0.031062 4.905423 0.234440 8.178294 -2.606399 0.330990 -7.338350 5.351628 12.765275 8.005953 0.000000 0.000000 0.000000 -2.929642 -0.057469 1.307976 -0.478888 -0.098937 -3.499081 -2.185594 -8.275595 10.228131 0.000000 0.000000 0.000000 -0.598462 -0.164849 4.612073 6.940694 -1.239255 -21.410340 -2.379348 -2.973342 27.442833 0.285428 0.896881 -19.581545 0.000000 0.000000 0.000000 -30.550934 1.381185 -2.759409 -51.474527 -5.701538 -6.207454 -1.804614 -23.137048 1.636045 0.000000 0.000000 0.000000 21.568297 6.408965 2.369186 53.883625 7.338256 -4.527581 -0.418266 26.206516 1.100451 0.000000 0.000000 0.000000 
-0.001437 0.936488 0.000652 -2.103996 4.099620 -0.041361 4.791302 0.233449 8.099337 -2.415832 0.319204 -7.130601 5.197943 12.492823 7.848759 0.000000 0.000000 0.000000 -3.102228 -0.055425 1.290643 -0.241776 -0.104097 -3.169251 -2.381048 -8.597077 10.110417 0.000000 0.000000 0.000000 -0.719605 -0.163053 4.711800 6.928680 -1.250028 -21.143807 -2.418628 -3.001237 27.425670 0.256591 0.930071 -19.278583 0.000000 0.000000 0.000000 -30.025960 1.259091 -2.708901 -51.849566 -5.592084 -6.268201 -1.606867 -22.623710 1.547514 0.000000 0.000000 0.000000 21.735319 6.234444 2.337106 53.696040 7.316136 -4.543366 -0.433453 26.048526 1.097785 0.000000 0.000000 0.000000 
